<?xml version="1.0" standalone="no"?>
<!DOCTYPE svg PUBLIC "-//W3C//DTD SVG 20010904//EN"
 "http://www.w3.org/TR/2001/REC-SVG-20010904/DTD/svg10.dtd">
<svg version="1.0" xmlns="http://www.w3.org/2000/svg"
 width="1600.000000pt" height="1600.000000pt" viewBox="0 0 1600.000000 1600.000000"
 preserveAspectRatio="xMidYMid meet">
<metadata>
Created by potrace 1.14, written by Peter Selinger 2001-2017
</metadata>
<g transform="translate(0.000000,1600.000000) scale(0.100000,-0.100000)"
fill="#000000" stroke="none">
<path d="M2665 15989 c-566 -50 -1127 -274 -1565 -626 -117 -93 -316 -289
-412 -403 -395 -470 -625 -1029 -678 -1645 -14 -166 -14 -10464 0 -10630 44
-509 205 -970 485 -1390 100 -149 188 -257 330 -404 502 -517 1139 -819 1860
-881 166 -14 10464 -14 10630 0 509 44 970 205 1390 485 149 100 257 188 404
330 517 502 819 1139 881 1860 14 166 14 10464 0 10630 -44 509 -205 970 -485
1390 -100 149 -188 257 -330 404 -502 517 -1139 819 -1860 881 -150 12 -10503
11 -10650 -1z m7595 -2214 c801 -111 1544 -540 1997 -1152 264 -356 413 -712
480 -1143 24 -160 24 -527 0 -695 -107 -727 -493 -1444 -1086 -2018 -703 -679
-1635 -1105 -2633 -1203 l-177 -18 122 -46 c345 -131 640 -295 927 -516 138
-106 425 -390 536 -529 435 -547 697 -1217 769 -1964 18 -182 21 -584 5 -751
-35 -388 -104 -717 -224 -1075 -75 -221 -163 -435 -179 -435 -7 0 -100 5 -207
10 -1646 85 -2830 651 -3563 1701 -210 302 -405 701 -530 1084 -80 244 -164
591 -188 770 -24 188 6 425 72 558 112 227 267 177 358 -116 11 -37 35 -136
52 -220 46 -225 103 -440 169 -637 478 -1431 1531 -2303 3030 -2509 200 -27
411 -44 421 -34 16 16 100 329 134 498 60 299 70 406 70 740 0 390 -28 604
-120 930 -79 276 -227 600 -380 830 -413 622 -1047 1059 -1790 1235 -317 75
-463 91 -935 99 -371 7 -399 9 -464 30 -46 15 -82 35 -110 61 -37 35 -41 43
-41 87 1 69 28 118 114 203 140 138 318 238 584 325 212 70 403 111 852 185
1227 202 1819 392 2405 775 462 301 890 778 1126 1255 143 289 202 523 211
831 10 319 -43 565 -182 856 -207 433 -568 794 -1027 1028 -354 181 -697 265
-1085 265 -425 0 -825 -121 -1183 -357 -190 -125 -417 -336 -570 -528 -237
-298 -456 -724 -601 -1168 -83 -256 -123 -426 -294 -1247 -80 -383 -176 -773
-249 -1015 -334 -1099 -818 -1679 -1546 -1852 -156 -37 -418 -43 -585 -15
-299 52 -556 182 -760 387 -293 292 -441 698 -422 1155 17 400 168 745 441
1008 114 109 207 175 346 245 172 86 387 141 605 153 l114 7 -31 41 c-58 74
-281 291 -366 355 -303 229 -657 374 -1112 457 -204 37 -280 74 -280 139 0 51
85 105 195 123 452 76 1034 -75 1514 -391 247 -163 493 -386 668 -605 166
-206 355 -524 407 -685 20 -61 20 -161 0 -219 -52 -153 -233 -224 -392 -153
-60 27 -75 40 -208 188 -53 58 -133 111 -209 138 -84 30 -262 37 -369 15 -339
-70 -619 -324 -717 -652 -29 -97 -37 -307 -15 -430 64 -369 327 -658 663 -729
101 -22 280 -19 382 5 367 88 690 425 929 970 176 400 299 846 477 1720 125
616 174 815 276 1128 431 1316 1243 2184 2295 2453 134 34 348 71 484 83 97 9
490 -4 600 -19z m-2365 -6791 c144 -18 376 -63 500 -99 119 -34 295 -96 295
-104 0 -3 -57 -26 -128 -50 -468 -160 -902 -447 -1202 -796 -86 -100 -210
-273 -250 -348 -14 -26 -28 -47 -31 -47 -9 0 -74 243 -108 405 -55 255 -63
289 -93 378 l-30 87 61 69 c119 134 338 324 526 456 l110 77 115 -7 c63 -3
169 -13 235 -21z m1542 -633 c116 -94 313 -293 406 -410 37 -47 65 -86 64 -88
-2 -1 -59 -14 -127 -28 -547 -116 -1052 -388 -1440 -775 -203 -203 -389 -458
-515 -703 -33 -64 -63 -117 -66 -117 -10 0 -158 202 -231 315 -36 55 -95 155
-133 223 l-68 123 86 127 c381 565 914 1007 1533 1273 102 44 359 137 381 138
7 1 56 -35 110 -78z m793 -1068 c68 -162 170 -503 170 -567 0 -20 -9 -25 -87
-46 -564 -147 -1138 -586 -1503 -1147 l-66 -103 -100 58 c-167 97 -302 190
-461 319 -13 10 -10 20 22 73 127 209 318 442 542 660 343 335 720 579 1135
734 93 35 281 93 305 95 6 1 26 -34 43 -76z m227 -1360 c-4 -82 -14 -202 -22
-268 -15 -119 -51 -336 -57 -339 -2 -1 -21 -10 -43 -20 -74 -34 -203 -124
-277 -195 l-74 -70 -111 19 c-150 26 -308 62 -461 106 -198 57 -185 36 -101
160 84 123 257 308 374 400 136 106 292 196 450 259 93 38 274 94 304 95 l24
0 -6 -147z"/>
</g>
</svg>
