<svg width="155" height="30" fill="none" xmlns="http://www.w3.org/2000/svg"><g clip-path="url(#a)"><path d="M19.444 21.795a5.11 5.11 0 0 1-4.13-.29.09.09 0 0 0-.111.027.092.092 0 0 0 .004.115c.567.613 1.585 1.688 2.2 2.22a.312.312 0 0 0 .432-.027l1.704-1.89a.096.096 0 0 0-.1-.155Z" fill="#fff"/><path d="m20.68 10.076-2.235 1.337a1.58 1.58 0 0 1-1.783-.116l-1.958-1.52a5.79 5.79 0 0 0-2.212-1.074c-3.357-.796-5.64.975-7.36 4.301-1.644 3.184-.725 7.732 3.326 8.81 4.28 1.147 7.106-3.625 8.24-5.216a.548.548 0 0 1 .883 0c1.756 2.387 4.118 4.962 6.65 4.449 3.306-.669 2.917-4.883 1.883-7.127-.916-1.99-2.279-3.84-4.36-4.075a1.703 1.703 0 0 0-1.074.235v-.004Zm-6.963 6.37a1.814 1.814 0 0 1-2.708-.78 1.834 1.834 0 0 1 .373-2 1.817 1.817 0 0 1 2.807.258 1.742 1.742 0 0 1-.472 2.523Zm9.222-2.355a1.808 1.808 0 0 1-.826 2.651 1.789 1.789 0 0 1-1.949-.395 1.806 1.806 0 0 1 .263-2.766 1.73 1.73 0 0 1 2.505.51" fill="#fff"/><path d="M17.506 17.827a.425.425 0 0 0-.638 0l-1.796 2.145a.228.228 0 0 0 .044.33c.396.299 1.427.951 2.414.951a4.982 4.982 0 0 0 2.148-.56.222.222 0 0 0 .113-.262.223.223 0 0 0-.05-.089l-2.235-2.515Z" fill="#fff"/><path d="M11.684 13.418a1.825 1.825 0 0 0-.79 1.875 1.829 1.829 0 0 0 1.429 1.444 1.813 1.813 0 0 0 1.872-.779 1.831 1.831 0 0 0-.006-2.034 1.735 1.735 0 0 0-1.855-.8 1.73 1.73 0 0 0-.65.294ZM20.427 13.581a1.825 1.825 0 0 0-.791 1.873A1.83 1.83 0 0 0 21.06 16.9a1.812 1.812 0 0 0 1.873-.775 1.831 1.831 0 0 0-.002-2.034 1.74 1.74 0 0 0-1.141-.807 1.728 1.728 0 0 0-1.364.297Z" fill="#FF4C46"/><path d="m29.49 4.146-9.642.88a9.715 9.715 0 0 0-5.069-1.353 8.07 8.07 0 0 0-1.407.123L3.317.04a.367.367 0 0 0-.458.163.371.371 0 0 0 .102.477l6.186 4.807a16.446 16.446 0 0 0-3.606 3.096c-1.855 2.125-4.166 7.959-5.3 11.031a3.919 3.919 0 0 0 .635 3.832c2.049 2.503 6.305 6.566 14.498 6.566 7.506 0 11.303-3.383 13.078-5.858a5.463 5.463 0 0 0 .793-4.747c-.816-2.746-2.52-7.489-5.287-10.744l-.293-.342 6.004-3.582a.31.31 0 0 0-.182-.577l.004-.016Zm-9.951 17.82-1.704 1.89a.312.312 0 0 1-.432.028c-.614-.533-1.633-1.592-2.2-2.22a.091.091 0 0 1 .107-.144 5.112 5.112 0 0 0 4.13.29.094.094 0 0 1 .108.04.096.096 0 0 1-.009.116Zm.135-1.25c-.665.347-1.4.538-2.148.561-.987 0-2.002-.652-2.414-.95a.223.223 0 0 1-.044-.327l1.792-2.16a.424.424 0 0 1 .638 0l2.235 2.522a.223.223 0 0 1-.063.35l.004.004Zm6.416-6.788c1.035 2.244 1.423 6.458-1.882 7.127-2.533.513-4.895-2.054-6.65-4.45a.549.549 0 0 0-.69-.165.549.549 0 0 0-.194.166c-1.134 1.591-3.964 6.366-8.24 5.216-4.05-1.078-4.97-5.638-3.325-8.81 1.72-3.326 4.003-5.097 7.36-4.301.805.195 1.559.561 2.211 1.074l1.958 1.52a1.581 1.581 0 0 0 1.783.116l2.252-1.337c.322-.195.7-.278 1.074-.235 2.064.235 3.428 2.089 4.36 4.075M37.909 23.888V9.586h3.159v6.212H51.55V9.586h3.163v14.302H51.55V18.48H41.068v5.408h-3.16ZM63.646 24.246c-2.092 0-3.777-.544-5.053-1.632a5.801 5.801 0 0 1-1.914-4.313 5.82 5.82 0 0 1 1.914-4.314c1.276-1.085 2.96-1.629 5.053-1.631 2.109 0 3.797.545 5.077 1.631a5.808 5.808 0 0 1 1.91 4.314 5.83 5.83 0 0 1-1.91 4.313c-1.28 1.087-2.968 1.632-5.077 1.632Zm0-2.46a4.348 4.348 0 0 0 2.937-.958 3.438 3.438 0 0 0 1.113-2.537 3.45 3.45 0 0 0-1.113-2.537 4.348 4.348 0 0 0-2.937-.963 4.281 4.281 0 0 0-2.917.975 3.429 3.429 0 0 0-1.11 2.53 3.441 3.441 0 0 0 1.11 2.532 4.312 4.312 0 0 0 2.917.959ZM79.012 24.246c-2.093 0-3.777-.544-5.053-1.632a5.802 5.802 0 0 1-1.914-4.313 5.823 5.823 0 0 1 1.914-4.314c1.276-1.085 2.96-1.629 5.053-1.631 2.093-.003 3.784.54 5.073 1.631a5.82 5.82 0 0 1 0 8.627c-1.276 1.085-2.967 1.63-5.073 1.632Zm0-2.46a4.348 4.348 0 0 0 2.937-.958 3.438 3.438 0 0 0 1.113-2.537 3.448 3.448 0 0 0-1.113-2.537 4.348 4.348 0 0 0-2.937-.963 4.273 4.273 0 0 0-2.917.975 3.42 3.42 0 0 0-1.114 2.53 3.434 3.434 0 0 0 1.114 2.532 4.304 4.304 0 0 0 2.917.959ZM91.841 24.127a3.012 3.012 0 0 1-2.596-1.234c-.396-.581-.745-1.345-.745-3.012v-4.867h-1.585v-2.3h2.045V9.586h2.719v3.128h3.202v2.3h-3.202v4.182c-.024 1.246.174 1.703.475 1.99.531.53 2.148.17 2.727-.203v2.423c-.678.474-1.898.689-3.024.689M102.919 24.246c-2.02-.007-4.028-.3-5.965-.872v-2.55a15.07 15.07 0 0 0 5.453.963c1.017.04 2.034-.05 3.028-.267.611-.179.912-.501.912-.963 0-.461-.337-.732-1.011-.903-.811-.191-1.64-.3-2.473-.326a35.95 35.95 0 0 1-2.913-.255 5.317 5.317 0 0 1-2.473-.927 2.42 2.42 0 0 1-1.01-2.082 2.994 2.994 0 0 1 .46-1.658 2.977 2.977 0 0 1 1.295-1.127c1.173-.626 2.769-.94 4.788-.94a29.28 29.28 0 0 1 5.548.626v2.459a25.332 25.332 0 0 0-5.231-.581c-2.521 0-3.782.387-3.785 1.162 0 .398.345.66 1.026.816.813.174 1.639.282 2.469.322.964.06 1.935.163 2.906.302a5.383 5.383 0 0 1 2.481.975 2.5 2.5 0 0 1 1.026 2.121 2.955 2.955 0 0 1-1.736 2.786c-1.162.604-2.766.907-4.811.907M124.574 12.714v11.174h-3.48l.444-4.604h-.178c-.529 3.305-2.353 4.96-5.474 4.962-1.605-.032-2.774-.557-3.519-1.592-.745-1.034-1.11-2.722-1.11-5.105v-4.835h3.171v4.469c0 1.683.238 2.885.713 3.581.476.696 1.253 1.074 2.339 1.074a3.27 3.27 0 0 0 2.869-1.655c.713-1.1 1.07-2.568 1.07-4.401v-3.084l3.155.016ZM128.862 11.64a2.058 2.058 0 0 1-1.423-.458 1.716 1.716 0 0 1-.511-1.353 1.688 1.688 0 0 1 .511-1.341 2.092 2.092 0 0 1 1.423-.446 2.171 2.171 0 0 1 1.459.446 1.679 1.679 0 0 1 .523 1.34c0 1.195-.658 1.812-1.982 1.812Zm-1.534 1.074h3.171v11.174h-3.171V12.714ZM148.298 24.246c-2.018 0-3.639-.544-4.863-1.632a5.982 5.982 0 0 1 0-8.627c1.226-1.085 2.847-1.629 4.863-1.631 2.016-.003 3.623.463 4.82 1.396a4.507 4.507 0 0 1 1.878 3.677v1.83h-10.372a2.673 2.673 0 0 0 1.415 1.99c.765.398 1.887.601 3.373.601.428 0 .844 0 1.244-.055.333-.027.663-.07.991-.132.293-.063.583-.14.868-.234.321-.108.555-.188.702-.247.146-.06.396-.16.677-.29l.615-.271v2.55a16.5 16.5 0 0 1-2.917.872c-1.09.167-2.192.241-3.294.223v-.02Zm-3.737-6.506 7.431-.18c-.045-.98-.363-1.685-.955-2.112-.595-.422-1.506-.637-2.739-.637-1.232 0-2.081.227-2.683.684-.602.458-.951 1.194-1.054 2.245ZM137.538 24.127a3.01 3.01 0 0 1-2.596-1.234c-.396-.581-.741-1.345-.741-3.012v-4.867h-1.586v-2.3h2.049V9.586h2.68v3.128h3.206v2.3h-3.206v4.182c-.024 1.246.174 1.703.479 1.99.527.53 2.144.17 2.727-.203v2.423c-.678.474-1.899.689-3.028.689" fill="#FF4C46"/></g><defs><clipPath id="a"><path fill="#fff" d="M0 0h155v30H0z"/></clipPath></defs></svg>