<?xml version="1.0" encoding="utf-8"?>
<!-- Generator: Adobe Illustrator 23.0.1, SVG Export Plug-In . SVG Version: 6.00 Build 0)  -->
<svg version="1.1" id="Layer_1" xmlns="http://www.w3.org/2000/svg" xmlns:xlink="http://www.w3.org/1999/xlink" x="0px" y="0px"
	 viewBox="0 0 156 32" style="enable-background:new 0 0 156 32;" xml:space="preserve">
<style type="text/css">
	.st0{fill:#162020;}
	.st1{filter:url(#Adobe_OpacityMaskFilter);}
	.st2{fill-rule:evenodd;clip-rule:evenodd;fill:#FFFFFF;}
	.st3{mask:url(#logo_dark-b_1_);fill:#59CB59;}
	.st4{filter:url(#Adobe_OpacityMaskFilter_1_);}
	.st5{mask:url(#logo_dark-d_1_);fill:#2BB656;}
	.st6{filter:url(#Adobe_OpacityMaskFilter_2_);}
	.st7{mask:url(#logo_dark-f_1_);fill:#0CA750;}
	.st8{filter:url(#Adobe_OpacityMaskFilter_3_);}
	.st9{mask:url(#logo_dark-h_1_);fill:#75DD66;}
	.st10{fill-rule:evenodd;clip-rule:evenodd;fill:#0EA84C;}
	.st11{fill-rule:evenodd;clip-rule:evenodd;fill:#2CB757;}
	.st12{fill-rule:evenodd;clip-rule:evenodd;fill:#75DD66;}
	.st13{fill-rule:evenodd;clip-rule:evenodd;fill:#5ACC5A;}
</style>
<g>
	<path class="st0" d="M72.6,10c0,0-1.4,0.6-2.6,0.6c-1.2,0-1.8,0.6-1.8,0.6l0,0c-0.5,0.4-0.9,1-1.2,1.7v-0.3c0-0.9-0.7-1.6-1.6-1.6
		c-0.9,0-1.6,0.7-1.6,1.6V21c0,0.9,0.7,1.6,1.6,1.6c0.9,0,1.6-0.7,1.6-1.6v-4c0.2-1.7,1.1-2.7,2.5-3c0.1,0,0.2,0,0.2-0.1
		c0,0,0,0,0,0c0,0,0,0,0,0C73,13,72.6,10,72.6,10z M154.4,22.5h1.6V7h-1.6V22.5z M143.8,13.6c1-0.5,2-0.8,3.3-0.8c2,0,3.2,1,3.2,3
		v0.4c-1-0.3-1.9-0.5-3.3-0.5c-2.7,0-4.6,1.2-4.6,3.6c0,2.3,2,3.4,4,3.4c1.9,0,3.2-0.9,3.9-1.9v1.7h1.6v-6.7c0-2.9-1.7-4.4-4.6-4.4
		c-1.6,0-2.7,0.4-3.9,0.9L143.8,13.6z M144,19.2c0-1.4,1.1-2.3,3.2-2.3c1.3,0,2.4,0.2,3.2,0.5v1.1c0,1.7-1.6,3-3.6,3
		C145.2,21.4,144,20.6,144,19.2z M138.7,9.1h1.8V7.3h-1.8V9.1z M138.8,22.5h1.6v-11h-1.6V22.5z M132.7,22.7c2,0,3.3-0.9,4.4-2.1
		l-1-1c-0.9,0.9-1.9,1.6-3.3,1.6c-2.3,0-4-1.9-4-4.3c0-2.4,1.7-4.3,3.9-4.3c1.5,0,2.4,0.7,3.3,1.7l1.1-1.1c-1-1.1-2.3-2-4.3-2
		c-3.2,0-5.6,2.6-5.6,5.7C127.1,20.1,129.5,22.7,132.7,22.7z M120.2,22.7c3.3,0,5.7-2.6,5.7-5.7c0-3.1-2.4-5.7-5.6-5.7
		c-3.3,0-5.7,2.6-5.7,5.7S117,22.7,120.2,22.7z M120.2,12.7c2.3,0,4,1.9,4,4.3c0,2.4-1.6,4.2-4,4.2c-2.3,0-4-1.9-4-4.3
		C116.3,14.6,117.9,12.7,120.2,12.7z M109.5,22.7c2.2,0,3.9-1.2,3.9-3.3v0c0-2-1.8-2.6-3.5-3.1c-1.4-0.4-2.8-0.8-2.8-1.9v0
		c0-0.9,0.8-1.6,2.1-1.6c1,0,2.2,0.4,3.2,1.1l0.7-1.2c-1.1-0.7-2.6-1.2-3.9-1.2c-2.1,0-3.7,1.3-3.7,3.1v0c0,2,1.9,2.6,3.6,3.1
		c1.4,0.4,2.7,0.8,2.7,1.9v0c0,1.1-0.9,1.7-2.2,1.7c-1.3,0-2.6-0.5-3.8-1.4l-0.8,1.2C106.2,22.1,107.9,22.7,109.5,22.7z M96.9,19.3
		c0,2.6,1.3,3.4,3.3,3.4c0.7,0,1.2-0.1,1.8-0.3c0.4-0.2,0.8-0.6,0.8-1.2c0-0.7-0.6-1.3-1.3-1.3c-0.1,0-0.3,0-0.4,0
		c-0.7,0-1-0.4-1-1.1v-4.9h1.4c0.8,0,1.4-0.6,1.4-1.4c0-0.8-0.6-1.4-1.4-1.4h-1.4V9.7c0-0.9-0.7-1.6-1.6-1.6c-0.9,0-1.6,0.7-1.6,1.6
		V19.3z M95.3,21v-8.4c0-0.9-0.7-1.6-1.6-1.6c-0.9,0-1.6,0.7-1.6,1.6v4.9c0,1.5-0.8,2.3-2,2.3c-1.2,0-1.9-0.8-1.9-2.3v-4.9
		c0-0.9-0.7-1.6-1.6-1.6c-0.9,0-1.6,0.7-1.6,1.6v5.9c0,2.6,1.4,4.2,3.8,4.2c1.6,0,2.6-0.9,3.3-1.8V21c0,0.9,0.7,1.6,1.6,1.6
		C94.6,22.6,95.3,21.9,95.3,21z M71.5,16.9c0,3.3,2.6,5.9,6.1,5.9c3.5,0,6.1-2.7,6.1-5.9v0c0-3.3-2.6-5.9-6.1-5.9
		C74.1,10.9,71.5,13.6,71.5,16.9L71.5,16.9z M80.5,16.9c0,1.7-1.1,3.1-2.9,3.1c-1.8,0-3-1.5-3-3.1v0c0-1.7,1.1-3.1,2.9-3.1
		C79.3,13.7,80.5,15.1,80.5,16.9L80.5,16.9z M50.6,12.6v11.8c0,0.9,0.7,1.6,1.6,1.6c0.9,0,1.6-0.7,1.6-1.6V21
		c0.8,0.9,1.8,1.7,3.5,1.7c2.7,0,5.1-2.1,5.1-5.9v0c0-3.8-2.5-5.9-5.1-5.9c-1.7,0-2.7,0.8-3.5,1.8v-0.1c0-0.9-0.7-1.6-1.6-1.6
		C51.3,11,50.6,11.7,50.6,12.6z M59.2,16.8c0,1.9-1.3,3.1-2.7,3.1c-1.5,0-2.7-1.3-2.7-3.1v0c0-1.9,1.2-3.1,2.7-3.1
		C57.9,13.6,59.2,14.9,59.2,16.8L59.2,16.8z M40.6,21.4c-0.3-0.2-0.6-0.6-0.6-1.1c0-0.7,0.5-1.3,1.3-1.3c0.2,0,0.5,0.1,0.6,0.2
		c1.1,0.7,2.1,1,3,1c0.9,0,1.3-0.3,1.3-0.8v0c0-0.7-1.1-0.9-2.3-1.3c-1.6-0.5-3.4-1.2-3.4-3.4v0c0-2.3,1.8-3.6,4.1-3.6
		c1.2,0,2.4,0.3,3.5,0.9c0.5,0.2,0.8,0.7,0.8,1.2c0,0.7-0.6,1.3-1.3,1.3c-0.2,0-0.4,0-0.6-0.1c-0.9-0.4-1.8-0.7-2.4-0.7
		c-0.8,0-1.2,0.3-1.2,0.8v0c0,0.6,1.1,0.9,2.3,1.4c1.6,0.5,3.4,1.3,3.4,3.4v0c0,2.5-1.9,3.7-4.3,3.7C43.5,22.7,42,22.3,40.6,21.4z"
		/>
	<defs>
		<filter id="Adobe_OpacityMaskFilter" filterUnits="userSpaceOnUse" x="0" y="0" width="26" height="32">
			<feColorMatrix  type="matrix" values="1 0 0 0 0  0 1 0 0 0  0 0 1 0 0  0 0 0 1 0"/>
		</filter>
	</defs>
	<mask maskUnits="userSpaceOnUse" x="0" y="0" width="26" height="32" id="logo_dark-b_1_">
		<g class="st1">
			<polygon id="logo_dark-a_1_" class="st2" points="0,0 26,0 26,32 0,32 			"/>
		</g>
	</mask>
	<path class="st3" d="M11.1,0C5,0,0,5,0,11v20.2C0,31.7,0.3,32,0.7,32c0.2,0,0.4-0.1,0.5-0.2l6-6h7.6c6.1,0,11.1-4.9,11.1-11v0V0
		H11.1z"/>
	<defs>
		<filter id="Adobe_OpacityMaskFilter_1_" filterUnits="userSpaceOnUse" x="11" y="0" width="15" height="15">
			<feColorMatrix  type="matrix" values="1 0 0 0 0  0 1 0 0 0  0 0 1 0 0  0 0 0 1 0"/>
		</filter>
	</defs>
	<mask maskUnits="userSpaceOnUse" x="11" y="0" width="15" height="15" id="logo_dark-d_1_">
		<g class="st4">
			<polygon id="logo_dark-c_1_" class="st2" points="0,0 26,0 26,32 0,32 			"/>
		</g>
	</mask>
	<polygon class="st5" points="26,0 11,0 11,15 	"/>
	<g>
		<defs>
			<filter id="Adobe_OpacityMaskFilter_2_" filterUnits="userSpaceOnUse" x="0" y="0" width="11" height="26">
				<feColorMatrix  type="matrix" values="1 0 0 0 0  0 1 0 0 0  0 0 1 0 0  0 0 0 1 0"/>
			</filter>
		</defs>
		<mask maskUnits="userSpaceOnUse" x="0" y="0" width="11" height="26" id="logo_dark-f_1_">
			<g class="st6">
				<polygon id="logo_dark-e_1_" class="st2" points="0,0 26,0 26,32 0,32 				"/>
			</g>
		</mask>
		<path class="st7" d="M11,0C4.9,0,0,5,0,11.1V26l11-11.1V0z"/>
	</g>
	<g>
		<defs>
			<filter id="Adobe_OpacityMaskFilter_3_" filterUnits="userSpaceOnUse" x="11" y="0" width="15" height="15">
				<feColorMatrix  type="matrix" values="1 0 0 0 0  0 1 0 0 0  0 0 1 0 0  0 0 0 1 0"/>
			</filter>
		</defs>
		<mask maskUnits="userSpaceOnUse" x="11" y="0" width="15" height="15" id="logo_dark-h_1_">
			<g class="st8">
				<polygon id="logo_dark-g_1_" class="st2" points="0,0 26,0 26,32 0,32 				"/>
			</g>
		</mask>
		<polygon class="st9" points="26,0 11,15 26,15 		"/>
	</g>
	<polyline class="st10" points="7.3,26 1.7,26 5.2,28.1 7.3,26 	"/>
	<polyline class="st11" points="26,0 11.1,0 11.1,14.9 26,0 	"/>
	<path class="st10" d="M11.1,0C5,0,0,5,0,11.1V26l11.1-11.1V0"/>
	<polyline class="st12" points="26,0 11.1,14.9 26,14.9 26,0 	"/>
	<path class="st13" d="M11.1,14.9L0,26h14.9C21,26,26,21,26,14.9H11.1"/>
</g>
</svg>
